<svg width="38" height="35" viewBox="0 0 38 35" fill="none" xmlns="http://www.w3.org/2000/svg">
<path d="M18.6254 35C28.9119 35 37.2508 27.165 37.2508 17.5C37.2508 7.83501 28.9119 0 18.6254 0C8.33886 0 0 7.83501 0 17.5C0 27.165 8.33886 35 18.6254 35Z" fill="#D1AC75"/>
<path d="M18.6253 30.3256C25.8499 30.3256 31.7066 24.8228 31.7066 18.0347C31.7066 11.2466 25.8499 5.74377 18.6253 5.74377C11.4006 5.74377 5.54395 11.2466 5.54395 18.0347C5.54395 24.8228 11.4006 30.3256 18.6253 30.3256Z" fill="#EFE3C7"/>
<path d="M11.3143 18.3346C11.3143 22.2139 18.525 30.1849 22.6621 30.1849C35.3414 30.1849 24.1946 23.8191 25.4425 21.5608C25.9785 20.5929 26.2716 19.4992 26.2716 18.3346C26.2716 14.4553 22.9217 11.3078 18.7929 11.3078C14.6558 11.3157 11.3143 14.4553 11.3143 18.3346Z" fill="white"/>
<path d="M13.2656 33.4339L19.1614 34.9919L15.5853 33.3788L0 27.7369C0 31.3644 2.83066 34.9919 7.4535 34.9919C9.06982 34.9998 12.0429 34.3545 13.2656 33.4339Z" fill="#005399"/>
<path d="M37.1839 16.0287C37.1839 16.0287 27.5278 16.0601 22.5867 25.4633C28.382 24.4561 28.5747 28.115 28.5747 28.115C28.5747 28.115 26.5898 27.3989 24.6888 28.4691C22.7877 29.5392 19.3373 30.2317 16.4564 24.818C13.5755 19.4043 8.39995 11.331 1.90954 9.78091C0.628208 12.236 -0.066891 15.0136 0.00848151 17.9486C0.259723 27.2258 8.33295 34.7877 18.2067 34.9923C28.6835 35.2047 37.2509 27.2888 37.2509 17.4922C37.2592 17.0044 37.2257 16.5165 37.1839 16.0287Z" fill="#005399"/>
</svg>
